<?xml version="1.0" encoding="utf-8"?>
<!-- Generator: Adobe Illustrator 28.0.0, SVG Export Plug-In . SVG Version: 6.00 Build 0)  -->
<svg version="1.1" id="Layer_1" xmlns="http://www.w3.org/2000/svg" xmlns:xlink="http://www.w3.org/1999/xlink" x="0px" y="0px"
	 viewBox="0 0 559 690.6" style="enable-background:new 0 0 559 690.6;" xml:space="preserve">
<style type="text/css">
	.st0{fill:#ffd900bf; stroke:#000000; stroke-width:3; stroke-miterlimit:10;}
    .st1{fill:#ffd900ee; stroke:none; stroke-width:3; stroke-miterlimit:10;}
</style>
<path class="st0" d="M24.9,666.8c-5.1,0-8.4-3.5-8.4-8.8V67.4c0-5.3,3.4-8.8,8.4-8.8h171.7c179.3,0,298.8,117.4,298.8,304.1
	c0,187.5-119.5,304.1-298.8,304.1H24.9z M117.5,157.7v410.1h79.1c120.4-0.9,197.8-79.7,197.8-205.1c0-125.3-78.3-205.1-198.6-205.1
	H117.5z"/>
<path class="st1" d="M71.9,632c-5.1,0-8.4-3.5-8.4-8.8V32.5c0-5.3,3.4-8.8,8.4-8.8h171.7c179.3,0,298.8,117.4,298.8,304.1
	c0,187.5-119.5,304.1-298.8,304.1H71.9z M164.5,122.8v410.1h79.1c120.4-0.9,197.8-79.7,197.8-205.1c0-125.3-78.3-205.1-198.6-205.1
	H164.5z"/>
</svg>
