<svg xmlns="http://www.w3.org/2000/svg" xmlns:xlink="http://www.w3.org/1999/xlink" viewBox="0,0,256,256" width="48px" height="48px"><defs><radialGradient cx="24" cy="23" r="19" gradientUnits="userSpaceOnUse" id="color-1"><stop offset="0.078" stop-color="#ffffff"></stop><stop offset="0.202" stop-color="#fff5a3"></stop><stop offset="0.216" stop-color="#fff392"></stop><stop offset="0.263" stop-color="#ffee5f"></stop><stop offset="0.307" stop-color="#ffea37"></stop><stop offset="0.347" stop-color="#ffe71a"></stop><stop offset="0.382" stop-color="#ffe508"></stop><stop offset="0.408" stop-color="#ffe402"></stop><stop offset="0.545" stop-color="#fdde02"></stop><stop offset="0.736" stop-color="#f9cc01"></stop><stop offset="0.956" stop-color="#f2af00"></stop><stop offset="1" stop-color="#f0a800"></stop></radialGradient><radialGradient cx="21.677" cy="37.463" r="10.066" gradientUnits="userSpaceOnUse" id="color-2"><stop offset="0" stop-color="#6e757b"></stop><stop offset="1" stop-color="#4a4e52"></stop></radialGradient></defs><g fill="none" fill-rule="nonzero" stroke="none" stroke-width="1" stroke-linecap="butt" stroke-linejoin="miter" stroke-miterlimit="10" stroke-dasharray="" stroke-dashoffset="0" font-family="none" font-weight="none" font-size="none" text-anchor="none" style="mix-blend-mode: normal"><g transform="scale(5.33333,5.33333)"><circle cx="24" cy="23" r="19" fill="url(#color-1)"></circle><path d="M29,38h-10c0,0.7 0,2 0,2c0,2.8 2.2,5 5,5c2.8,0 5,-2.2 5,-5c0,0 0,-1.3 0,-2z" fill="url(#color-2)"></path><path d="M34,23c0,-5.5 -4.5,-10 -10,-10c-5.5,0 -10,4.5 -10,10c0,5 5,9 5,14v1h10v-1c0,-5 5,-9 5,-14z" fill="#fefefe"></path></g></g></svg>